<?xml version="1.0" standalone="no"?>
<!DOCTYPE svg PUBLIC "-//W3C//DTD SVG 20010904//EN"
 "http://www.w3.org/TR/2001/REC-SVG-20010904/DTD/svg10.dtd">
<svg version="1.0" xmlns="http://www.w3.org/2000/svg"
 width="1040.000000pt" height="1040.000000pt" viewBox="0 0 1040.000000 1040.000000"
 preserveAspectRatio="xMidYMid meet">
<metadata>
Created by potrace 1.14, written by Peter Selinger 2001-2017
</metadata>
<g transform="translate(0.000000,1040.000000) scale(0.100000,-0.100000)"
fill="#000000" stroke="none">
<path d="M4915 8109 c-108 -11 -177 -19 -215 -25 -19 -3 -48 -7 -65 -9 -16 -2
-41 -7 -55 -10 -62 -12 -127 -26 -145 -29 -11 -2 -40 -9 -65 -16 -25 -7 -52
-14 -60 -15 -8 -2 -53 -15 -100 -29 -47 -15 -92 -28 -100 -30 -25 -7 -163 -57
-205 -75 -22 -10 -60 -26 -85 -36 -80 -34 -285 -137 -304 -154 -10 -9 -21 -15
-25 -15 -7 2 -143 -76 -151 -87 -3 -3 -16 -12 -29 -19 -117 -61 -511 -383
-511 -417 0 -7 -4 -13 -9 -13 -11 0 -30 -72 -35 -133 -2 -27 -6 -50 -8 -52 -2
-2 -49 -7 -103 -10 -55 -3 -111 -7 -125 -10 -14 -2 -45 -7 -70 -10 -82 -11
-104 -16 -206 -40 -167 -40 -281 -81 -459 -166 -216 -103 -420 -247 -590 -416
-121 -120 -157 -163 -254 -298 -28 -38 -55 -76 -61 -82 -6 -7 -8 -13 -4 -13 4
0 -1 -9 -10 -19 -42 -47 -191 -351 -213 -436 -9 -35 -11 -119 -2 -135 7 -15
-5 -38 -73 -139 -10 -14 -21 -33 -25 -41 -3 -8 -9 -17 -13 -20 -29 -24 -208
-381 -277 -550 -91 -224 -185 -531 -207 -680 -3 -19 -8 -46 -11 -60 -3 -14 -7
-36 -10 -49 -2 -13 -7 -49 -11 -80 -3 -31 -8 -65 -11 -76 -3 -11 -6 -110 -8
-220 -2 -162 0 -218 15 -295 18 -93 46 -195 58 -215 4 -5 7 -12 8 -15 0 -3 6
-18 12 -33 7 -16 12 -30 12 -32 0 -5 81 -136 95 -153 49 -61 108 -124 148
-157 27 -22 54 -44 61 -50 12 -10 28 -20 101 -60 40 -23 141 -62 180 -71 100
-21 172 -29 235 -28 84 2 167 11 181 20 5 3 22 8 37 10 116 20 268 108 378
220 59 60 146 179 145 199 -1 2 8 20 18 39 11 18 29 69 41 112 29 102 58 194
69 219 70 157 129 267 168 315 6 8 30 39 53 68 34 44 46 53 63 47 37 -11 41
-12 67 -18 67 -18 228 -39 239 -32 5 3 12 2 14 -2 9 -14 282 -5 372 12 156 29
283 61 303 77 8 7 17 12 19 10 6 -6 133 42 133 50 0 5 7 8 16 8 8 0 40 14 71
31 l55 31 51 -49 c80 -76 90 -86 136 -123 24 -19 48 -39 55 -45 49 -44 289
-205 305 -205 5 0 14 -7 21 -15 7 -8 16 -13 20 -10 5 3 12 1 15 -5 8 -12 184
-97 275 -132 36 -14 74 -29 85 -33 11 -5 22 -9 25 -10 3 0 21 -6 41 -13 20 -7
45 -15 55 -17 10 -2 40 -11 67 -19 26 -8 47 -12 47 -9 0 3 7 0 15 -7 9 -7 18
-10 21 -7 3 3 17 1 31 -4 54 -20 286 -53 385 -54 32 0 58 -2 58 -6 0 -7 233
-4 335 5 87 8 323 43 335 51 4 3 25 7 46 11 53 8 297 83 308 95 6 5 15 9 22 9
6 0 36 11 65 24 30 13 56 24 59 24 11 0 246 125 275 145 16 12 44 30 62 39 28
15 92 61 143 101 8 7 31 23 50 37 19 13 47 36 62 50 15 14 35 32 45 40 10 8
46 41 80 73 l61 58 64 -33 c69 -37 212 -97 238 -100 3 0 16 -5 30 -10 75 -30
251 -65 375 -75 136 -11 310 -6 408 13 43 7 113 23 152 33 39 11 41 10 74 -27
73 -81 156 -223 234 -402 13 -30 35 -99 43 -135 22 -106 91 -264 149 -343 44
-59 217 -217 221 -202 1 3 10 -2 20 -11 17 -15 59 -36 149 -74 60 -25 192 -48
285 -48 118 0 164 6 270 38 3 1 18 5 34 10 46 13 168 78 227 122 46 34 81 67
182 174 9 11 16 20 15 22 -1 1 12 24 31 50 69 101 130 266 155 422 14 88 15
409 2 495 -3 19 -8 57 -12 84 -3 27 -8 58 -10 70 -3 12 -7 30 -8 41 -10 60
-21 112 -48 220 -17 66 -31 125 -33 130 -1 6 -5 17 -8 25 -3 8 -20 60 -37 115
-47 149 -135 363 -211 515 -74 149 -150 283 -161 288 -5 2 -8 8 -8 13 0 5 -25
46 -54 91 -39 58 -53 86 -47 97 16 31 4 125 -23 191 -15 36 -29 70 -30 75 -4
18 -90 189 -126 250 -124 211 -300 423 -469 565 -30 25 -59 50 -65 55 -6 6
-36 28 -66 50 -30 22 -56 43 -58 47 -2 5 -8 8 -12 8 -5 0 -28 13 -52 29 -103
69 -246 143 -378 196 -51 20 -98 38 -104 40 -6 1 -18 5 -26 8 -41 16 -206 61
-260 71 -19 3 -46 8 -60 11 -25 5 -70 11 -137 20 -21 2 -80 7 -132 10 -52 3
-97 8 -99 10 -3 2 -7 31 -9 62 -7 111 -51 171 -248 331 -108 88 -310 232 -325
232 -4 0 -10 3 -12 8 -6 13 -174 109 -316 180 -109 54 -337 154 -362 157 -3 1
-56 18 -118 38 -61 20 -120 39 -130 41 -9 1 -24 6 -32 9 -8 3 -37 10 -65 16
-27 7 -61 14 -75 17 -62 14 -168 35 -200 39 -19 3 -46 7 -60 10 -14 2 -54 7
-90 10 -36 4 -76 9 -90 12 -44 8 -533 10 -605 2z m479 -463 c50 -3 105 -8 121
-10 17 -2 57 -7 90 -11 32 -4 68 -9 80 -11 11 -2 34 -6 50 -8 90 -13 370 -86
407 -106 10 -6 24 -10 31 -10 16 0 226 -84 289 -116 26 -13 54 -24 63 -24 8 0
15 -3 15 -8 0 -4 17 -15 38 -24 136 -63 428 -258 567 -381 l40 -35 0 -258 c-1
-143 -4 -308 -8 -369 -8 -109 -10 -135 -22 -250 -4 -33 -8 -76 -10 -95 -2 -19
-6 -48 -9 -65 -3 -16 -8 -53 -11 -81 -3 -28 -8 -61 -10 -75 -3 -13 -8 -44 -11
-69 -3 -25 -8 -54 -11 -65 -4 -21 -9 -47 -19 -105 -10 -59 -15 -81 -30 -155
-9 -38 -18 -81 -20 -95 -3 -14 -10 -43 -15 -65 -5 -22 -12 -51 -15 -65 -2 -14
-27 -106 -55 -205 -27 -99 -51 -187 -54 -195 -10 -41 -67 -215 -95 -295 -17
-49 -33 -94 -34 -100 -2 -5 -6 -17 -9 -25 -3 -8 -30 -78 -58 -155 -55 -145
-63 -157 -158 -235 -24 -19 -48 -39 -55 -45 -6 -5 -31 -23 -56 -40 -25 -16
-47 -32 -50 -35 -3 -4 -23 -17 -45 -29 l-40 -24 32 29 c21 19 46 62 73 128 22
54 40 103 40 108 0 6 6 24 14 41 28 62 65 175 59 181 -4 3 -1 6 5 6 7 0 12 9
12 20 0 12 7 34 15 50 9 17 15 32 15 35 1 3 2 10 4 17 23 79 127 453 132 473
2 11 7 36 11 55 9 46 10 50 13 53 1 1 3 11 5 22 4 21 18 87 20 95 9 33 25 117
31 155 2 17 7 41 10 55 4 14 8 39 10 55 2 17 6 41 9 55 3 14 7 36 9 50 2 14
13 97 24 185 12 88 23 187 26 220 14 155 16 187 21 283 2 57 7 108 10 113 4 5
2 9 -3 9 -5 0 -6 17 -3 38 4 20 5 111 3 202 -5 263 -6 274 -23 290 -39 36
-108 93 -164 135 -33 25 -64 49 -70 53 -34 27 -136 92 -144 92 -6 0 -11 5 -11
10 0 6 -4 10 -10 10 -5 0 -26 12 -47 26 -89 61 -515 253 -595 268 -7 1 -45 12
-83 24 -39 12 -81 23 -95 26 -14 2 -25 5 -25 6 0 4 -209 43 -290 55 -180 26
-659 26 -785 1 -14 -3 -45 -8 -70 -10 -25 -3 -56 -8 -70 -11 -62 -13 -77 -16
-100 -21 -14 -3 -41 -9 -60 -14 -19 -5 -46 -11 -60 -14 -69 -13 -310 -94 -406
-136 -84 -37 -287 -138 -331 -165 -24 -14 -43 -22 -43 -16 0 6 10 16 23 22 12
7 24 15 27 19 4 5 101 69 205 136 73 46 339 180 378 189 15 4 27 11 27 16 0 5
3 8 8 7 4 -1 23 4 42 11 19 8 40 15 45 17 6 2 51 17 100 34 115 39 290 84 405
104 19 3 49 8 65 11 17 3 53 8 80 11 28 3 67 10 87 14 22 4 36 4 32 -1 -3 -5
5 -5 18 -1 13 5 75 10 138 11 63 1 116 3 117 4 2 3 87 -1 197 -7z m-2020 -621
c-28 -22 -40 -18 -13 4 13 11 26 17 28 15 3 -2 -4 -11 -15 -19z m-625 -641 c1
-48 2 -90 3 -93 2 -19 -5 -27 -24 -28 -13 -1 -43 -5 -68 -9 -25 -4 -52 -8 -60
-9 -8 -1 -42 -7 -75 -14 -59 -12 -72 -16 -171 -46 -28 -9 -59 -17 -70 -20 -55
-12 -297 -118 -354 -155 -129 -85 -169 -118 -310 -260 -129 -129 -151 -154
-222 -258 -71 -105 -174 -313 -161 -326 4 -3 3 -6 0 -6 -4 0 -30 46 -57 103
-57 116 -57 114 0 228 132 263 358 521 580 665 25 16 47 32 48 37 2 4 10 7 18
7 8 0 14 3 14 8 0 4 10 12 23 18 12 6 59 29 103 52 45 23 124 58 175 78 102
38 277 86 290 78 4 -2 11 1 14 7 4 5 13 8 21 5 7 -3 16 -1 19 4 3 5 11 7 18 5
7 -3 24 -2 40 3 15 4 67 8 115 10 l88 3 3 -87z m5136 70 c128 -19 339 -77 435
-121 303 -137 519 -303 708 -543 37 -47 70 -86 74 -88 5 -2 8 -8 8 -13 0 -5
16 -34 35 -64 39 -60 108 -195 120 -233 5 -17 -2 -42 -25 -88 -26 -53 -34 -63
-46 -53 -8 6 -14 17 -14 24 0 8 -3 15 -7 17 -5 2 -19 19 -33 39 -102 146 -329
382 -485 500 -16 13 -32 26 -35 29 -10 13 -196 143 -240 168 -25 14 -47 29
-50 33 -13 18 -267 131 -365 163 -109 36 -227 64 -285 68 l-31 2 3 89 3 89 95
-6 c52 -3 113 -9 135 -12z m1690 -1794 c106 -207 231 -525 251 -636 3 -15 9
-35 15 -46 5 -10 7 -18 5 -18 -3 0 -1 -11 4 -25 5 -14 12 -37 15 -50 3 -14 7
-35 10 -47 21 -95 41 -223 51 -318 8 -77 5 -269 -5 -331 -21 -127 -63 -218
-138 -299 -31 -34 -69 -68 -85 -76 -30 -16 -33 -13 -18 14 8 14 19 52 36 117
23 93 22 321 -2 484 -7 47 -31 180 -38 210 -20 87 -50 203 -63 241 -8 25 -16
50 -17 55 -2 6 -6 17 -9 25 -3 8 -15 44 -27 80 -34 105 -127 322 -185 434 -40
77 -51 106 -42 115 6 6 15 11 20 11 10 0 71 59 78 75 2 6 19 36 38 67 l35 56
14 -26 c8 -15 34 -65 57 -112z m-8665 121 c0 -12 84 -148 174 -281 104 -154
263 -358 338 -432 15 -16 26 -28 23 -28 -2 0 50 -54 117 -120 68 -66 118 -120
113 -120 -6 0 -32 -31 -59 -69 -27 -38 -54 -67 -61 -65 -11 5 -252 249 -310
315 -61 70 -154 187 -240 302 -48 65 -91 115 -95 110 -3 -4 -17 -33 -29 -63
-13 -30 -29 -68 -36 -85 -24 -55 -63 -169 -95 -275 -18 -58 -35 -112 -38 -120
-3 -8 -7 -24 -9 -35 -2 -11 -8 -38 -14 -60 -6 -22 -13 -51 -15 -65 -3 -14 -7
-33 -10 -42 -6 -20 -9 -34 -24 -128 -6 -41 -14 -86 -16 -100 -5 -26 -13 -110
-19 -190 -2 -25 -4 -47 -5 -50 -2 -8 0 -182 3 -232 1 -27 -1 -48 -5 -48 -4 0
-8 6 -8 14 0 7 -7 19 -15 26 -35 29 -89 180 -101 280 -7 59 -6 243 1 300 2 19
6 60 10 90 12 125 61 334 118 510 11 36 22 70 24 75 32 124 248 595 273 595 6
0 10 -4 10 -9z m7536 -591 c-35 -33 -66 -60 -71 -60 -5 0 19 27 52 60 33 33
65 60 71 60 6 0 -18 -27 -52 -60z"/>
</g>
</svg>
