<svg width="56" height="50" viewBox="0 0 56 50" fill="none" xmlns="http://www.w3.org/2000/svg">
<g clip-path="url(#clip0_93_2382)">
<path d="M7.56132 37.7973C9.58786 39.2108 12.8735 39.2108 14.9001 37.7973C16.9266 36.3837 16.9266 34.0919 14.9001 32.6783C12.8735 31.2648 9.58786 31.2648 7.56132 32.6783C5.53478 34.0919 5.53478 36.3837 7.56132 37.7973Z" fill="#495057"/>
<path d="M28.595 18.6016C31.6349 20.7219 36.5633 20.7219 39.6031 18.6016C42.6429 16.4812 42.6429 13.0435 39.6031 10.9232C36.5633 8.80293 31.6349 8.80293 28.595 10.9232C25.5553 13.0435 25.5553 16.4812 28.595 18.6016Z" fill="#495057"/>
<path d="M17.4295 28.1994C19.9626 29.9662 24.0697 29.9662 26.6029 28.1994C29.1361 26.4324 29.1361 23.5677 26.6029 21.8007C24.0697 20.0339 19.9626 20.0339 17.4295 21.8007C14.8963 23.5677 14.8963 26.4324 17.4295 28.1994Z" fill="#495057"/>
<path d="M1.13993 26.9195C2.65983 27.9796 5.12408 27.9796 6.64399 26.9195C8.16388 25.8593 8.16388 24.1405 6.64399 23.0803C5.12408 22.0201 2.65983 22.0201 1.13993 23.0803C-0.379977 24.1405 -0.379975 25.8593 1.13993 26.9195Z" fill="#495057"/>
<path d="M17.4295 7.72379C19.9626 9.49071 24.0697 9.49071 26.6029 7.72379C29.1361 5.95687 29.1361 3.09212 26.6029 1.3252C24.0697 -0.441731 19.9626 -0.441733 17.4295 1.3252C14.8963 3.09212 14.8963 5.95687 17.4295 7.72379Z" fill="#495057"/>
<path d="M7.56134 17.3216C9.58788 18.7352 12.8736 18.7352 14.9001 17.3216C16.9266 15.9081 16.9266 13.6162 14.9001 12.2027C12.8736 10.7892 9.58788 10.7892 7.56134 12.2027C5.5348 13.6162 5.53482 15.9081 7.56134 17.3216Z" fill="#495057"/>
<path d="M17.4295 48.675C19.9626 50.4418 24.0697 50.4418 26.6029 48.675C29.1361 46.908 29.1361 44.0433 26.6029 42.2763C24.0697 40.5095 19.9626 40.5095 17.4295 42.2763C14.8963 44.0433 14.8963 46.908 17.4295 48.675Z" fill="#495057"/>
<path d="M41.9751 28.8389C45.015 30.9592 49.9435 30.9592 52.9833 28.8389C56.0231 26.7186 56.0231 23.2809 52.9833 21.1606C49.9435 19.0402 45.015 19.0402 41.9751 21.1606C38.9354 23.2809 38.9354 26.7186 41.9751 28.8389Z" fill="#495057"/>
<path d="M28.595 39.0771C31.6349 41.1975 36.5633 41.1975 39.6031 39.0771C42.6429 36.9568 42.6429 33.5192 39.6031 31.3988C36.5633 29.2785 31.6349 29.2785 28.595 31.3988C25.5553 33.5192 25.5553 36.9568 28.595 39.0771Z" fill="#495057"/>
</g>
<defs>
<clipPath id="clip0_93_2382">
<rect width="55.2632" height="50" fill="white"/>
</clipPath>
</defs>
</svg>
