<svg width="100" height="26" viewBox="0 0 100 26" fill="none" xmlns="http://www.w3.org/2000/svg">
<path d="M32.1472 19.3195C31.6417 19.3469 31.1418 19.2032 30.728 18.9116C30.5552 18.7835 30.4161 18.6151 30.3228 18.4212C30.2295 18.2272 30.1848 18.0135 30.1927 17.7984V9.92094C30.1886 9.88763 30.1921 9.85372 30.203 9.82194C30.2139 9.79016 30.2319 9.76135 30.2557 9.73756C30.2795 9.71376 30.3083 9.69575 30.3401 9.68487C30.3719 9.67391 30.4058 9.67042 30.4391 9.6745H31.8667C32.0282 9.6745 32.1047 9.75948 32.1047 9.92094V17.1866C32.1047 17.5095 32.2491 17.6709 32.5466 17.6709C32.6727 17.6761 32.7988 17.6618 32.9205 17.6284C33.0904 17.6284 33.1839 17.6794 33.1924 17.8324L33.3198 18.8946C33.326 18.9256 33.3254 18.9575 33.3182 18.9883C33.3109 19.0189 33.2972 19.0478 33.2778 19.0727C33.2585 19.0977 33.234 19.1183 33.2061 19.133C33.1782 19.1477 33.1474 19.1563 33.1159 19.158C32.8032 19.2614 32.4764 19.3158 32.1472 19.3195Z" fill="#495057"/>
<path d="M40.1776 18.41C39.4603 19.0027 38.5588 19.3269 37.6282 19.3269C36.6977 19.3269 35.7963 19.0027 35.0789 18.41C34.4485 17.7735 34.0947 16.9138 34.0947 16.0179C34.0947 15.122 34.4485 14.2622 35.0789 13.6258C35.7977 13.0361 36.6986 12.7139 37.6282 12.7139C38.5579 12.7139 39.4588 13.0361 40.1776 13.6258C40.7936 14.2681 41.1375 15.1237 41.1375 16.0136C41.1375 16.9036 40.7936 17.7592 40.1776 18.4015V18.41ZM36.4216 17.2883C36.7545 17.5899 37.1876 17.7569 37.6367 17.7569C38.0859 17.7569 38.5191 17.5899 38.8519 17.2883C39.1533 16.9419 39.3191 16.4983 39.3191 16.0391C39.3191 15.5801 39.1533 15.1364 38.8519 14.79C38.5191 14.4885 38.0859 14.3214 37.6367 14.3214C37.1876 14.3214 36.7545 14.4885 36.4216 14.79C36.1203 15.1364 35.9544 15.5801 35.9544 16.0391C35.9544 16.4983 36.1203 16.9419 36.4216 17.2883Z" fill="#495057"/>
<path d="M48.9983 12.929C49.1597 12.929 49.2362 13.014 49.2362 13.1754V19.2684C49.2511 19.6797 49.1741 20.089 49.0109 20.4667C48.8478 20.8445 48.6025 21.1812 48.293 21.4523C47.6058 22.0382 46.7222 22.3418 45.8201 22.3021C45.0053 22.3307 44.2014 22.1082 43.5172 21.6647C43.225 21.4729 42.9755 21.223 42.784 20.9307C42.5925 20.6383 42.4631 20.3097 42.404 19.9652C42.404 19.7952 42.404 19.7187 42.6334 19.7187H44.0611C44.1216 19.7208 44.1805 19.7404 44.2302 19.7751C44.28 19.8098 44.3186 19.858 44.3415 19.9142C44.4341 20.1723 44.6187 20.3872 44.8599 20.5175C45.1538 20.6692 45.481 20.7452 45.8116 20.7385C46.0111 20.7494 46.2108 20.7205 46.3991 20.6533C46.5873 20.5863 46.7602 20.4823 46.9078 20.3476C47.0427 20.2067 47.1475 20.0399 47.2162 19.8573C47.2849 19.6748 47.3158 19.4802 47.3072 19.2854V18.75C46.7961 19.1259 46.174 19.3204 45.5397 19.3024C45.0958 19.3185 44.6532 19.2448 44.2384 19.0857C43.8237 18.9264 43.4455 18.6852 43.1263 18.3761C42.5137 17.7423 42.1712 16.8953 42.1712 16.0137C42.1712 15.1322 42.5137 14.2852 43.1263 13.6513C43.447 13.3451 43.8258 13.1061 44.2402 12.9485C44.6547 12.7908 45.0965 12.7178 45.5397 12.7336C46.1923 12.7163 46.8312 12.9233 47.3497 13.3199V13.1839C47.3458 13.1514 47.3492 13.1183 47.3596 13.0872C47.3701 13.0562 47.3874 13.0278 47.4101 13.0042C47.4329 12.9806 47.4607 12.9624 47.4914 12.9508C47.5221 12.9393 47.555 12.9348 47.5876 12.9375L48.9983 12.929ZM45.7011 17.7897C45.92 17.7965 46.1378 17.7552 46.339 17.6685C46.5401 17.5819 46.7199 17.4521 46.8653 17.2884C47.1479 16.9236 47.3012 16.4751 47.3012 16.0137C47.3012 15.5523 47.1479 15.1039 46.8653 14.739C46.7204 14.5776 46.5417 14.4497 46.3421 14.3645C46.1424 14.2794 45.9266 14.239 45.7096 14.2462C45.4882 14.2392 45.2679 14.2804 45.064 14.367C44.86 14.4536 44.6773 14.5834 44.5284 14.7475C44.2155 15.0965 44.0509 15.5538 44.0696 16.0222C44.0543 16.486 44.2152 16.9384 44.5199 17.2884C44.6692 17.452 44.8519 17.5816 45.0558 17.6681C45.2597 17.7546 45.4798 17.7961 45.7011 17.7897Z" fill="#495057"/>
<path d="M56.5698 18.4105C55.8511 19.0002 54.9501 19.3224 54.0205 19.3224C53.0908 19.3224 52.1899 19.0002 51.4711 18.4105C50.8546 17.7667 50.5105 16.9098 50.5105 16.0184C50.5105 15.127 50.8546 14.27 51.4711 13.6262C52.1906 13.0381 53.0912 12.7168 54.0205 12.7168C54.9497 12.7168 55.8504 13.0381 56.5698 13.6262C57.1858 14.2686 57.5297 15.1241 57.5297 16.0141C57.5297 16.9041 57.1858 17.7596 56.5698 18.402V18.4105ZM52.8053 17.2888C52.9682 17.4438 53.1603 17.5649 53.3703 17.6451C53.5804 17.7253 53.8042 17.7631 54.029 17.7562C54.2523 17.7619 54.4746 17.7237 54.6831 17.6435C54.8917 17.5633 55.0823 17.4428 55.2442 17.2888C55.5406 16.94 55.7033 16.4973 55.7033 16.0396C55.7033 15.5819 55.5406 15.1392 55.2442 14.7904C55.0823 14.6365 54.8917 14.5159 54.6831 14.4358C54.4746 14.3556 54.2523 14.3173 54.029 14.323C53.8042 14.3162 53.5804 14.3539 53.3703 14.4341C53.1603 14.5143 52.9682 14.6355 52.8053 14.7904C52.509 15.1392 52.3462 15.5819 52.3462 16.0396C52.3462 16.4973 52.509 16.94 52.8053 17.2888Z" fill="#495057"/>
<path d="M60.5978 11.4848C60.3732 11.6815 60.0848 11.7898 59.7863 11.7898C59.4877 11.7898 59.1994 11.6815 58.9747 11.4848C58.8729 11.3887 58.7918 11.2728 58.7363 11.1442C58.6809 11.0157 58.6522 10.8771 58.6522 10.737C58.6522 10.597 58.6809 10.4585 58.7363 10.3298C58.7918 10.2012 58.8729 10.0853 58.9747 9.98921C59.2017 9.7975 59.4892 9.69238 59.7863 9.69238C60.0833 9.69238 60.3708 9.7975 60.5978 9.98921C60.6997 10.0853 60.7808 10.2012 60.8362 10.3298C60.8917 10.4585 60.9203 10.597 60.9203 10.737C60.9203 10.8771 60.8917 11.0157 60.8362 11.1442C60.7808 11.2728 60.6997 11.3887 60.5978 11.4848ZM60.7762 19.3198C60.2711 19.3446 59.7721 19.2012 59.3571 18.9119C59.1869 18.7819 59.0502 18.6129 58.9586 18.4193C58.8669 18.2256 58.8229 18.0128 58.8303 17.7987V13.1759C58.8262 13.1426 58.8297 13.1087 58.8406 13.0769C58.8515 13.0451 58.8695 13.0163 58.8933 12.9925C58.9171 12.9687 58.9459 12.9507 58.9777 12.9398C59.0095 12.9289 59.0434 12.9254 59.0767 12.9294H60.5043C60.6658 12.9294 60.7423 13.0144 60.7423 13.1759V17.1868C60.7423 17.5098 60.8867 17.6712 61.1756 17.6712C61.3046 17.6759 61.4334 17.6615 61.558 17.6287C61.728 17.6287 61.8215 17.6797 61.83 17.8327L61.9574 18.8949C61.9636 18.9259 61.963 18.9578 61.9557 18.9885C61.9485 19.0192 61.9347 19.0481 61.9154 19.073C61.8961 19.098 61.8716 19.1186 61.8437 19.1333C61.8158 19.148 61.785 19.1565 61.7535 19.1583C61.4381 19.2623 61.1084 19.3167 60.7762 19.3198Z" fill="#495057"/>
<path d="M67.209 12.7259C67.655 12.7083 68.0999 12.7804 68.5174 12.938C68.9349 13.0958 69.3165 13.3357 69.6394 13.6436C70.2404 14.2886 70.5745 15.1373 70.5745 16.0187C70.5745 16.9002 70.2404 17.749 69.6394 18.3939C69.318 18.7046 68.9369 18.9469 68.5192 19.1061C68.1014 19.2653 67.6558 19.3382 67.209 19.3201C66.5727 19.3343 65.9491 19.1404 65.433 18.7678V21.8355C65.433 21.9969 65.348 22.0734 65.1866 22.0734H63.7589C63.7264 22.0795 63.6928 22.0776 63.6611 22.0678C63.6295 22.058 63.6007 22.0406 63.5773 22.0172C63.5539 21.9937 63.5365 21.965 63.5267 21.9333C63.5168 21.9017 63.515 21.8681 63.521 21.8355V14.8673C63.531 14.7991 63.5249 14.7296 63.5033 14.6642C63.4817 14.5989 63.445 14.5394 63.3963 14.4907C63.3476 14.442 63.2882 14.4054 63.2227 14.3837C63.1574 14.362 63.0878 14.356 63.0196 14.3659H62.7392C62.5523 14.3659 62.4588 14.2979 62.4588 14.162V13.1592C62.4544 13.0972 62.4714 13.0355 62.507 12.9845C62.5425 12.9335 62.5945 12.8961 62.6542 12.8788C62.9482 12.772 63.2593 12.7202 63.572 12.7259C63.8839 12.6982 64.1968 12.7644 64.4709 12.9158C64.7449 13.0672 64.9675 13.297 65.1101 13.5756C65.3838 13.2988 65.7111 13.0806 66.072 12.9345C66.4329 12.7884 66.8199 12.7174 67.209 12.7259ZM65.8834 17.2892C66.0349 17.4476 66.2169 17.5736 66.4185 17.6597C66.6201 17.7458 66.8369 17.7901 67.0561 17.7901C67.2753 17.7901 67.4922 17.7458 67.6937 17.6597C67.8953 17.5736 68.0773 17.4476 68.2288 17.2892C68.548 16.9332 68.7156 16.4668 68.6962 15.989C68.7184 15.5109 68.5503 15.0434 68.2288 14.6888C68.0773 14.5305 67.8953 14.4045 67.6937 14.3184C67.4922 14.2323 67.2753 14.1879 67.0561 14.1879C66.8369 14.1879 66.6201 14.2323 66.4185 14.3184C66.2169 14.4045 66.0349 14.5305 65.8834 14.6888C65.5742 15.0497 65.4133 15.5142 65.433 15.989C65.4158 16.4634 65.5765 16.9272 65.8834 17.2892Z" fill="#495057"/>
<path d="M74.5851 19.3202C73.8223 19.3515 73.0659 19.1691 72.4012 18.7933C72.1345 18.6327 71.9075 18.4141 71.7368 18.1537C71.5661 17.8933 71.4563 17.5978 71.4155 17.2892C71.4155 17.1192 71.475 17.0343 71.6619 17.0343H72.9111C72.9705 17.0366 73.0282 17.0553 73.0776 17.0883C73.1271 17.1213 73.1665 17.1673 73.1915 17.2212C73.37 17.6801 73.8373 17.9095 74.5851 17.9095C74.846 17.9215 75.1057 17.8689 75.3414 17.7566C75.4229 17.7199 75.4926 17.6617 75.5435 17.5884C75.5944 17.5151 75.6244 17.4292 75.6304 17.3402C75.6304 17.1192 75.4944 16.9663 75.2225 16.8643C74.9 16.757 74.5665 16.6857 74.2282 16.6519C73.8276 16.6065 73.4302 16.5355 73.0385 16.4394C72.6577 16.3533 72.3114 16.1549 72.0443 15.8701C71.887 15.6765 71.7713 15.4526 71.7041 15.2123C71.6371 14.9721 71.6202 14.7206 71.6544 14.4735C71.6888 14.2264 71.7735 13.989 71.9034 13.7761C72.0333 13.5632 72.2057 13.3793 72.4097 13.2358C73.0222 12.8456 73.7409 12.6555 74.4662 12.6919C75.1684 12.6682 75.8632 12.8419 76.4717 13.1933C76.7169 13.3322 76.928 13.524 77.0897 13.7548C77.2514 13.9856 77.3596 14.2495 77.4064 14.5274C77.4064 14.6974 77.3299 14.7824 77.177 14.7824H75.9193C75.8664 14.7855 75.8137 14.7726 75.7682 14.7453C75.7227 14.718 75.6865 14.6776 75.6644 14.6294C75.5803 14.4282 75.4221 14.2669 75.2225 14.179C74.9973 14.0612 74.7458 14.0027 74.4917 14.0091C74.2426 13.9955 73.9941 14.0453 73.7694 14.1535C73.6902 14.1841 73.622 14.2376 73.5735 14.3073C73.525 14.377 73.4985 14.4596 73.4974 14.5444C73.5029 14.6607 73.5454 14.7721 73.6189 14.8623C73.6923 14.9526 73.7926 15.0168 73.9053 15.0458C74.2316 15.1688 74.571 15.2543 74.9166 15.3007C75.314 15.3531 75.7083 15.4268 76.0978 15.5217C76.4786 15.6079 76.8249 15.8062 77.092 16.091C77.2349 16.248 77.3452 16.4316 77.4167 16.6315C77.4882 16.8313 77.5193 17.0433 77.5084 17.2552C77.5157 17.549 77.4468 17.8396 77.3083 18.0988C77.1697 18.3579 76.9664 18.5767 76.7181 18.7338C76.0832 19.1415 75.3392 19.3459 74.5851 19.3202Z" fill="#495057"/>
<path d="M86.4905 18.8951C86.4956 18.9253 86.4939 18.9562 86.4871 18.9858C86.4795 19.0156 86.4668 19.0434 86.4481 19.068C86.4302 19.0925 86.4073 19.1132 86.3809 19.1287C86.3546 19.1443 86.3257 19.1544 86.2951 19.1586C85.9849 19.2599 85.6612 19.3143 85.3348 19.32C85.0119 19.3535 84.6856 19.303 84.3882 19.1735C84.0899 19.044 83.8307 18.8398 83.6353 18.5807C83.0353 19.0968 82.2586 19.3616 81.4683 19.32C81.1012 19.3369 80.735 19.2769 80.3925 19.1437C80.0501 19.0105 79.739 18.8072 79.4799 18.5467C79.2224 18.2739 79.0229 17.9518 78.8928 17.5999C78.7629 17.248 78.7054 16.8735 78.7236 16.4988V13.1761C78.7236 13.0147 78.8 12.9297 78.9615 12.9297H80.3891C80.5506 12.9297 80.6271 13.0147 80.6271 13.1761V16.2438C80.6118 16.6261 80.7418 16.9998 80.9925 17.2891C81.1174 17.4216 81.2695 17.5258 81.4378 17.5947C81.606 17.6636 81.7879 17.6956 81.9697 17.6885C82.1558 17.6966 82.3419 17.6678 82.517 17.6036C82.692 17.5394 82.8526 17.4412 82.9895 17.3145C83.1186 17.1811 83.2197 17.0226 83.2852 16.8486C83.3515 16.6747 83.3803 16.4891 83.3719 16.3033V13.1761C83.3719 13.0147 83.4483 12.9297 83.6098 12.9297H85.0544C85.2159 12.9297 85.2924 13.0147 85.2924 13.1761V17.1786C85.2924 17.51 85.4368 17.6715 85.7172 17.6715C85.849 17.6766 85.9807 17.6623 86.1081 17.629C86.1404 17.62 86.1744 17.6183 86.2067 17.6243C86.2399 17.6302 86.2704 17.6434 86.2976 17.663C86.3248 17.6827 86.3469 17.7082 86.3631 17.7376C86.3784 17.767 86.3869 17.7996 86.3886 17.8329L86.4905 18.8951Z" fill="#495057"/>
<path d="M99.9935 18.8949C100.001 18.9253 100.002 18.9571 99.9961 18.9879C99.9893 19.0186 99.9765 19.0476 99.9578 19.0728C99.9391 19.0979 99.9153 19.1187 99.8873 19.1335C99.8601 19.1483 99.8295 19.1568 99.7981 19.1584C99.482 19.2611 99.1531 19.3156 98.8208 19.3198C98.3152 19.3459 97.8164 19.2024 97.4017 18.9119C97.2224 18.7875 97.0771 18.6209 96.9777 18.4267C96.8782 18.2325 96.8281 18.0168 96.8323 17.7987V15.8017C96.8502 15.4207 96.7227 15.047 96.4754 14.7565C96.3565 14.6237 96.2086 14.519 96.0446 14.4499C95.8797 14.3809 95.7021 14.3492 95.5237 14.3571C95.3631 14.3511 95.2033 14.3816 95.0555 14.4463C94.9085 14.5111 94.7784 14.6085 94.6739 14.731C94.4496 15.0158 94.3348 15.3716 94.351 15.7337V18.8694C94.351 19.0309 94.2745 19.1159 94.1131 19.1159H92.6769C92.6438 19.12 92.6098 19.1165 92.5784 19.1056C92.5461 19.0946 92.5172 19.0766 92.4934 19.0528C92.4696 19.0291 92.4517 19.0002 92.4407 18.9684C92.4296 18.9366 92.4262 18.9028 92.4305 18.8694V15.8017C92.4492 15.4248 92.3311 15.0538 92.0991 14.7565C91.9954 14.6316 91.8654 14.531 91.7184 14.462C91.5722 14.393 91.4116 14.3572 91.2493 14.3571C91.0759 14.3501 90.9034 14.3798 90.742 14.4443C90.5805 14.5087 90.4352 14.6064 90.3145 14.731C90.0715 15.0067 89.9466 15.3668 89.9661 15.7337V18.8694C89.9704 18.9028 89.967 18.9366 89.9559 18.9684C89.9449 19.0002 89.927 19.0291 89.9032 19.0528C89.8795 19.0766 89.8506 19.0946 89.8191 19.1056C89.7868 19.1165 89.7528 19.12 89.7197 19.1159H88.3346C88.1731 19.1159 88.0966 19.0309 88.0966 18.8694V14.867C88.1068 14.7988 88.1009 14.7293 88.0788 14.6639C88.0575 14.5985 88.021 14.539 87.9717 14.4903C87.9233 14.4417 87.8638 14.405 87.7983 14.3834C87.7329 14.3617 87.6632 14.3557 87.5952 14.3656H87.3148C87.1279 14.3656 87.0344 14.2976 87.0344 14.1617V13.1589C87.0301 13.0969 87.0471 13.0352 87.0828 12.9842C87.1185 12.9331 87.1704 12.8958 87.2298 12.8785C87.5239 12.7717 87.8349 12.7198 88.1476 12.7255C88.4476 12.6999 88.7492 12.7598 89.0169 12.8981C89.2846 13.0365 89.5073 13.2476 89.6602 13.5073C89.9466 13.2356 90.2865 13.0259 90.6579 12.8914C91.0292 12.7569 91.4244 12.7005 91.8187 12.7255C92.2019 12.7068 92.5835 12.7786 92.9336 12.9352C93.2837 13.0917 93.5913 13.3284 93.8326 13.6263C94.1139 13.3206 94.4598 13.0813 94.8447 12.9255C95.2297 12.7697 95.6444 12.7015 96.0591 12.7255C96.4296 12.7082 96.8001 12.7679 97.1468 12.9011C97.4935 13.0342 97.8087 13.2377 98.073 13.4988C98.3314 13.7712 98.5311 14.0932 98.6611 14.4452C98.7911 14.7972 98.8489 15.172 98.8293 15.5468V17.1869C98.8293 17.5098 98.9738 17.6712 99.2457 17.6712C99.3774 17.6774 99.5092 17.6631 99.6366 17.6287C99.8125 17.6287 99.906 17.6967 99.9171 17.8327L99.9935 18.8949Z" fill="#495057"/>
<path d="M0.348409 11.8247C0.975351 9.30485 2.42733 7.06713 4.47315 5.46796C6.519 3.86876 9.04106 3 11.6377 3C14.2344 3 16.7565 3.86876 18.8023 5.46796C20.8481 7.06713 22.3001 9.30485 22.927 11.8247H21.9073C20.1871 11.7994 18.5022 12.3135 17.0891 13.2948C17.0075 13.3539 16.9223 13.4078 16.8341 13.4563H16.7152C16.627 13.4078 16.5418 13.3539 16.4602 13.2948C15.0346 12.3362 13.3556 11.8242 11.6377 11.8242C9.91981 11.8242 8.24082 12.3362 6.81523 13.2948C6.73365 13.3539 6.6485 13.4078 6.5603 13.4563H6.44133C6.35312 13.4078 6.26797 13.3539 6.18639 13.2948C4.7733 12.3135 3.08835 11.7994 1.36814 11.8247H0.348409ZM20.0718 17.1528C20.5953 16.7452 21.2441 16.5319 21.9073 16.5495H23.2755V13.8217H21.9073C20.739 13.8076 19.5975 14.1712 18.6527 14.8584C18.1209 15.2504 17.4778 15.4619 16.8171 15.4619C16.1565 15.4619 15.5133 15.2504 14.9816 14.8584C14.0128 14.184 12.8606 13.8224 11.6802 13.8224C10.4998 13.8224 9.34766 14.184 8.37882 14.8584C7.84712 15.2504 7.20392 15.4619 6.5433 15.4619C5.88268 15.4619 5.23948 15.2504 4.70778 14.8584C3.75127 14.1624 2.59336 13.7983 1.41063 13.8217H0V16.5495H1.36814C2.03141 16.5319 2.6802 16.7452 3.20367 17.1528C4.17072 17.8277 5.32157 18.1896 6.50081 18.1896C7.68005 18.1896 8.83091 17.8277 9.79796 17.1528C10.3221 16.7465 10.9704 16.5333 11.6335 16.5495C12.297 16.5304 12.9462 16.7439 13.469 17.1528C14.4378 17.8273 15.59 18.1888 16.7704 18.1888C17.9508 18.1888 19.103 17.8273 20.0718 17.1528ZM20.0718 22.0306C20.5953 21.6229 21.2441 21.4096 21.9073 21.4272H23.2755V18.6994H21.9073C20.739 18.6853 19.5975 19.0489 18.6527 19.7361C18.1209 20.1282 17.4778 20.3397 16.8171 20.3397C16.1565 20.3397 15.5133 20.1282 14.9816 19.7361C14.0128 19.0618 12.8606 18.7003 11.6802 18.7003C10.4998 18.7003 9.34766 19.0618 8.37882 19.7361C7.84712 20.1282 7.20392 20.3397 6.5433 20.3397C5.88268 20.3397 5.23948 20.1282 4.70778 19.7361C3.75127 19.0402 2.59336 18.6761 1.41063 18.6994H0V21.4272H1.36814C2.03141 21.4096 2.6802 21.6229 3.20367 22.0306C4.17072 22.7054 5.32157 23.0673 6.50081 23.0673C7.68005 23.0673 8.83091 22.7054 9.79796 22.0306C10.3221 21.6242 10.9704 21.4111 11.6335 21.4272C12.297 21.4082 12.9462 21.6216 13.469 22.0306C14.4378 22.705 15.59 23.0665 16.7704 23.0665C17.9508 23.0665 19.103 22.705 20.0718 22.0306Z" fill="#495057"/>
</svg>
